<svg class="splatter" preserveAspectRatio="none" viewBox="0 0 634 574" fill="none" xmlns="http://www.w3.org/2000/svg">
<path fill-rule="evenodd" clip-rule="evenodd" d="M18.8253 228.988C10.3999 228.524 7.63343 219.657 5.92538 212.423C4.40616 205.988 4.68181 198.892 10.8286 195.119C18.3748 190.487 29.1929 188.465 35.8139 194.078C41.8608 199.204 36.2977 207.137 32.9997 213.914C29.7787 220.533 27.0311 229.44 18.8253 228.988Z" fill="#B30900"/>
<path fill-rule="evenodd" clip-rule="evenodd" d="M611.8 163.605C605.458 172.358 584.701 162.211 566.438 154.785C558.232 151.449 540.89 146.762 527.79 136.395C514.959 126.241 506.314 110.469 503.367 101.237C501.747 96.163 496.126 88.0022 506.7 84.0329C520.75 80.3628 531.626 96.1623 545.69 108.556C559.425 120.66 617.976 155.08 611.8 163.605Z" fill="#B30900"/>
<path fill-rule="evenodd" clip-rule="evenodd" d="M177.391 482.22C184.552 473.662 193.876 467.014 204.652 464.117L241.579 454.189C262.728 448.503 284.515 460.891 290.443 481.974V481.974C295.974 501.645 312.22 516.737 332.653 516.984C355.663 517.263 385.954 513.999 407.664 498.253C416.609 491.766 428.628 489.118 438.628 493.817C497.763 521.604 489.556 478.405 527.333 443.927C551.967 421.444 613.841 424.082 632.941 372.011C640.953 350.17 598.542 296.907 600 272.501C601.544 246.642 630.303 227.07 628 213.368C618.346 155.922 518.376 193.113 476 101.001C451.961 14.0817 403.954 83.5993 395.5 97.1064C395.5 97.1064 370.137 157.632 364.904 143.883C356.519 133.253 359.27 99.6275 364.904 73.3758C368.474 56.7423 366.198 31.4996 358.865 22.9632C342.359 1.81102 286.601 -3.59827 265.655 50.8488C241.352 114.021 251.967 117.831 187.956 117.831C150.616 126.898 216.942 186.928 138.841 213.368C109.05 225.706 47.858 187.985 50.6 246.782C49.6349 278.267 86.506 311.727 75.7426 338.873C64.2802 367.781 90.2288 391.831 75.7425 422.424C53.4142 469.578 3.11054 517.596 45.1709 537.199C100.74 563.097 155.104 508.858 177.391 482.22Z" fill="#B30900"/>
<path d="M294.129 542.261C300.264 547.992 308.535 549.931 315.08 544.558C321.624 539.186 321.956 530.184 315.82 524.453C309.685 518.722 299.406 518.432 292.861 523.805C286.316 529.177 287.993 536.53 294.129 542.261Z" fill="#B30900"/>
<path d="M286.477 566.573C287.709 570.598 291.765 573.293 296.36 572.215C300.956 571.137 303.683 567 302.451 562.976C301.22 558.952 296.757 557.682 292.161 558.76C287.566 559.839 285.246 562.549 286.477 566.573Z" fill="#B30900"/>
<path fill-rule="evenodd" clip-rule="evenodd" d="M15.8253 226.986C7.3999 226.522 4.63343 217.655 2.92538 210.421C1.40616 203.987 1.68181 196.89 7.82856 193.118C15.3748 188.486 26.1929 186.463 32.8139 192.076C38.8608 197.202 33.2977 205.135 29.9997 211.913C26.7787 218.531 24.0311 227.439 15.8253 226.986Z" fill="#FF6F61"/>
<path fill-rule="evenodd" clip-rule="evenodd" d="M609.8 158.604C603.458 167.357 582.701 157.21 564.438 149.784C556.232 146.448 538.89 141.761 525.79 131.394C512.959 121.24 504.314 105.468 501.367 96.2363C499.747 91.162 494.126 83.0013 504.7 79.032C518.75 75.3618 529.626 91.1613 543.69 103.555C557.425 115.659 615.976 150.079 609.8 158.604Z" fill="#FF6F61"/>
<path fill-rule="evenodd" clip-rule="evenodd" d="M167.391 473.219C174.552 464.661 183.876 458.013 194.652 455.116L231.579 445.188C252.728 439.502 274.515 451.89 280.443 472.973V472.973C285.974 492.644 302.22 507.736 322.653 507.983C345.663 508.262 375.953 504.998 397.664 489.252C406.609 482.765 418.628 480.117 428.628 484.816C487.763 512.603 479.556 469.404 517.333 434.926C541.967 412.443 603.841 415.081 622.941 363.01C630.953 341.169 590.755 291.174 592.213 266.768C593.757 240.909 625.244 222.548 622.941 208.846C613.287 151.4 519.456 180.218 477.08 88.1054C453.041 1.18612 407.025 76.3964 398.571 89.9034C398.571 89.9034 373.209 150.429 367.975 136.68C359.59 126.05 362.341 92.4245 367.975 66.1728C371.545 49.5393 369.269 24.2967 361.936 15.7603C345.43 -5.39189 276.601 -12.5993 255.655 41.8479C231.352 105.02 241.967 108.83 177.956 108.83C140.616 117.897 206.942 177.927 128.841 204.367C99.0504 216.705 37.858 178.984 40.6 237.781C39.6349 269.266 76.506 302.727 65.7426 329.872C54.2803 358.78 80.2288 382.83 65.7426 413.423C43.4143 460.577 -6.88941 508.595 35.171 528.198C90.7404 554.096 145.104 499.857 167.391 473.219Z" fill="#FF6F61"/>
<path d="M292.129 539.26C298.264 544.991 306.535 546.93 313.08 541.557C319.624 536.185 319.956 527.183 313.82 521.452C307.685 515.721 297.406 515.431 290.861 520.804C284.316 526.176 285.993 533.529 292.129 539.26Z" fill="#FF6F61"/>
<path d="M284.477 564.572C285.709 568.597 289.765 571.292 294.36 570.214C298.956 569.136 301.683 564.999 300.451 560.975C299.22 556.951 294.757 555.681 290.161 556.759C285.566 557.838 283.246 560.548 284.477 564.572Z" fill="#FF6F61"/>
</svg>
