<svg class="splatter" preserveAspectRatio="none" viewBox="0 0 551 589" fill="none" xmlns="http://www.w3.org/2000/svg">
<path fill-rule="evenodd" clip-rule="evenodd" d="M133.234 78.9928C138.103 84.4363 131.387 102.023 123.769 112.836V112.836C112.925 128.228 93.2146 132.064 76.7017 138.629L74.6764 139.434C74.6764 139.434 64.832 142.187 63.7595 134.694C63.7404 134.18 63.7848 133.66 63.8862 133.135C67.9312 112.187 92.645 105.013 107.949 91.9611C118.588 82.8876 129.769 75.1186 133.234 78.9928Z" fill="#B30900"/>
<path fill-rule="evenodd" clip-rule="evenodd" d="M129.234 74.9928C134.103 80.4363 127.387 98.0232 119.769 108.836V108.836C108.925 124.228 89.2146 128.064 72.7017 134.629L70.6764 135.434C70.6764 135.434 60.832 138.187 59.7595 130.694C59.7404 130.18 59.7848 129.66 59.8862 129.135C63.9312 108.187 88.645 101.013 103.949 87.9611C114.588 78.8876 125.769 71.1186 129.234 74.9928Z" fill="#FF6F61"/>
<path fill-rule="evenodd" clip-rule="evenodd" d="M239.921 565.881C238.584 573.298 242.407 581.949 246.024 584.889V584.889C251.308 589.183 257.821 579.297 262.536 574.716L265.931 571.417C265.931 571.417 269.719 566.775 269.517 560.405V560.405C268.838 552.329 255.13 557.018 247.431 558.82C243.846 559.66 240.685 561.643 239.921 565.881Z" fill="#B30900"/>
<path fill-rule="evenodd" clip-rule="evenodd" d="M236.921 562.881C235.584 570.298 239.407 578.949 243.024 581.889V581.889C248.308 586.183 254.821 576.297 259.536 571.716L262.931 568.417C262.931 568.417 266.719 563.775 266.517 557.405V557.405C265.838 549.329 252.13 554.018 244.431 555.82C240.846 556.66 237.685 558.643 236.921 562.881Z" fill="#FF6F61"/>
<path fill-rule="evenodd" clip-rule="evenodd" d="M254.871 29.4034C275.918 16.7711 303.46 2.82778 331.19 4.07839C356.67 5.22753 382.311 20.6464 403.22 30.2577C424.61 44.5071 437.319 67.5644 449.605 90.5138C458.188 106.545 471.615 119.413 482.314 133.95C505.327 165.22 560.798 192.5 548.437 227.576C541.012 248.646 504.401 234.398 488.66 263.032C468.352 299.975 437.452 294.356 419.17 313.123C402.025 330.724 414.469 358.331 401.661 378.251C387.812 399.79 359.561 411.789 342.803 431.895C330.55 446.596 316.287 465.072 309.007 486.087C296.67 521.698 285.783 548.224 249.329 543.864C226.521 541.136 224.02 449.103 178.5 412.245C152.087 390.859 119.747 417.411 95.9207 394.077C72.3783 371.021 91.3431 343.627 79.4143 315.208C65.3649 281.738 3.12547 275.285 10.6245 236.195C10.4697 204.404 21.5604 161.864 79.4143 149.064C111.56 136.537 111.138 139.841 136.861 119.691C157.063 103.865 153.421 71.0444 159.346 47.2953C166.059 20.392 229.326 44.7358 254.871 29.4034Z" fill="#B30900"/>
<path fill-rule="evenodd" clip-rule="evenodd" d="M244.871 25.4034C265.918 12.7711 293.46 -1.17222 321.19 0.0783944C346.67 1.22753 372.311 16.6464 393.22 26.2577C414.61 40.5071 427.319 63.5644 439.605 86.5138C448.188 102.545 461.615 115.413 472.314 129.95C495.327 161.22 550.798 188.5 538.437 223.576C531.012 244.646 494.401 230.398 478.66 259.032C458.352 295.975 427.452 290.356 409.17 309.123C392.025 326.724 404.469 354.331 391.661 374.251C377.812 395.79 349.561 407.789 332.803 427.895C320.55 442.596 306.287 461.072 299.007 482.087C286.67 517.698 275.783 544.224 239.329 539.864C216.521 537.136 214.02 445.103 168.5 408.245C142.087 386.859 109.747 413.411 85.9207 390.077C62.3783 367.021 81.3431 339.627 69.4143 311.208C55.3649 277.738 -6.87453 271.285 0.624485 232.195C0.469723 200.404 11.5604 157.864 69.4143 145.064C101.56 132.537 101.138 135.841 126.861 115.691C147.063 99.8649 143.421 67.0444 149.346 43.2953C156.059 16.392 219.326 40.7358 244.871 25.4034Z" fill="#FF6F61"/>
</svg>
