<svg width="1400" height="750" viewBox="0 0 1400 750" fill="none" xmlns="http://www.w3.org/2000/svg">
<path d="M1400 35.2817C1314 19.797 1213.33 6.7473 1120 7.42817C1026.67 8.10904 933.333 9.81443 840 7.42817C746.667 5.04191 653.333 -1.43173 560 -2.74652C466.667 -4.05918 373.333 -0.215123 280 7.42817C186.667 15.0715 87.5 28.3996 0 51.1966V758C93.3325 758 186.667 758 280 758C373.333 758 466.667 758 560 758C653.333 758 746.667 758 840 758C933.333 758 1026.67 758 1120 758C1213.33 758 1306.67 758 1400 758L1400 35.2817Z" fill="#FBF9F4"/>
</svg>
