<svg width="632" height="77" viewBox="0 0 632 77" fill="none" xmlns="http://www.w3.org/2000/svg">
<g style="mix-blend-mode:multiply">
<path d="M611.477 15.127C639.473 23.4361 638.854 69.6062 609.077 75.7465C591.797 79.3097 568.069 69.096 550.086 68.5764C509.014 67.3898 467.906 66.6629 426.846 67.394C326.107 69.1876 225.018 64.7071 124.353 69.5394C98.6231 70.7746 72.782 70.5641 47.1674 73.5125C36.4112 74.7506 20.2671 78.6055 12.1437 74.738C6.98748 72.2831 3.23556 67.7927 1.35639 61.7862C-7.37703 33.8711 32.0396 31.9876 49.268 27.952C122.386 10.8247 197.471 6.84595 272.058 1.71435C338.998 -2.89117 405.941 3.31466 472.977 2.65515C518.013 2.21208 567.445 2.05803 611.477 15.127Z" fill="#FACC15"/>
</g>
</svg>
