<svg width="1400" height="846" viewBox="0 0 1400 846" fill="none" xmlns="http://www.w3.org/2000/svg">
<path d="M0 829.829C93.3325 830.359 186.667 830.885 280 829.829C373.333 828.774 466.667 826.129 560 829.829C653.333 833.529 746.667 843.568 840 845.606C933.333 847.642 1026.67 841.681 1120 829.829C1213.33 817.977 1306.67 800.241 1400 782.501V-7.16448e-05C1306.67 -7.16448e-05 1213.33 -7.16448e-05 1120 -7.16448e-05C1026.67 -7.16448e-05 933.333 -7.16448e-05 840 -7.16448e-05C746.667 -7.16448e-05 653.333 -7.16448e-05 560 -7.16448e-05C466.667 -7.16448e-05 373.333 -7.16448e-05 280 -7.16448e-05C186.667 -7.16448e-05 93.3325 -7.16448e-05 0 -7.16448e-05V829.829Z" fill="#FBF9F4"/>
</svg>
