<svg width="1400" height="501" viewBox="0 0 1400 501" fill="none" xmlns="http://www.w3.org/2000/svg">
<path d="M0 500.247C93.3325 500.776 186.667 501.302 280 500.247C373.333 499.193 466.667 496.551 560 500.247C653.333 503.944 746.667 492.717 840 494.753C933.333 496.786 1025.5 500.247 1120 500.247C1213.33 488.409 1306.67 490.998 1400 473.278V273C1306.67 273 1213.33 273 1120 273C1026.67 273 933.333 273 840 273C746.667 273 653.333 273 560 273C466.667 273 373.333 273 280 273C186.667 273 93.3325 273 0 273L0 500.247Z" fill="#FBF9F4"/>
<path d="M0.992188 4.91725C93.5315 4.3877 196.317 10.0338 288.856 11.0896C381.395 12.1454 473.937 14.7898 566.477 11.0896C659.016 7.3894 751.558 23.4581 844.097 21.4193C936.636 19.3839 1029.18 0.344449 1121.72 12.1964C1214.26 24.0483 1306.8 -12.8225 1399.34 4.9173V302.919C1306.8 302.919 1214.26 302.919 1121.72 302.919C1029.18 302.919 936.636 302.919 844.097 302.919C751.558 302.919 659.016 302.919 566.477 302.919C473.937 302.919 381.395 302.919 288.856 302.919C196.317 302.919 93.5315 302.919 0.992188 302.919V4.91725Z" fill="#FBF9F4"/>
</svg>
