<svg class="splatter" preserveAspectRatio="none" viewBox="0 0 487 495" fill="none" xmlns="http://www.w3.org/2000/svg">
<path fill-rule="evenodd" clip-rule="evenodd" d="M271.416 402.899C256.639 434.226 276.735 467.931 225.268 487.784C194.64 499.599 81.2218 496.911 79.075 464.205C75.9303 416.298 86.5302 396.107 65.2641 353.044C44.1082 310.204 -9.16322 318.382 2.70361 272.113C30.5686 236.157 23.6357 257.396 65.2641 219.988C83.6104 203.502 25.927 194.726 34.3483 143.187C40.5251 105.385 122.603 102.164 146.182 86.5977C177.502 65.9214 156.288 39.1009 210.503 27.6516C236.44 15.5734 267.997 9.45551 295.141 18.5149C322.709 27.7159 333.39 93.0991 360.419 103.776C406.614 127.356 413.304 -15.8056 467.492 86.5977C492.207 108.819 490.577 153.865 478.382 184.755C468.756 209.138 457.284 207.961 449.053 232.002C439.27 260.575 419.99 283.778 392.111 295.394C380.723 300.139 372.45 306.121 372.882 313.97C375.132 354.78 440.479 395.413 406.614 418.388C369.992 443.234 349.299 366.504 307.122 353.044C293.218 348.606 279.837 385.046 271.416 402.899Z" fill="#01645F"/>
<path fill-rule="evenodd" clip-rule="evenodd" d="M54.1011 465.725C61.1433 465.035 65.6114 441.23 64.3772 421.03C63.2795 403.064 61.2507 377.029 54.5804 365.982C46.3915 352.42 23.1226 353.202 19.545 368.489C20.5643 381.053 26.6902 399.06 32.0411 418.341C37.2668 437.171 47.2425 466.397 54.1011 465.725Z" fill="#01645F"/>
<path fill-rule="evenodd" clip-rule="evenodd" d="M411.026 435.351C413.826 440.445 420.946 439.201 426.593 437.843C431.617 436.636 436.585 434.089 437.468 428.996C438.551 422.744 436.819 415.327 430.884 413.08C425.465 411.029 421.451 417.15 417.596 421.474C413.831 425.696 408.299 430.39 411.026 435.351Z" fill="#01645F"/>
<path fill-rule="evenodd" clip-rule="evenodd" d="M420.795 308.289C424.916 312.526 437.419 306.492 447.39 301.268C456.258 296.621 465.222 290.423 467.476 283.829C470.244 275.734 468.303 268.063 458.35 269.205C449.26 270.248 441.438 280.066 434.148 287.653C427.028 295.063 416.781 304.163 420.795 308.289Z" fill="#01645F"/>
<path fill-rule="evenodd" clip-rule="evenodd" d="M270.416 388.899C255.639 420.226 275.735 453.931 224.268 473.784C193.64 485.599 80.2218 482.911 78.075 450.205C74.9303 402.298 85.5302 382.107 64.2641 339.044C43.1082 296.204 -10.1632 304.382 1.70361 258.113C29.5686 222.157 22.6357 243.396 64.2641 205.988C82.6104 189.502 24.927 180.726 33.3483 129.187C39.5251 91.3854 121.603 88.1644 145.182 72.5977C176.502 51.9214 155.288 25.1009 209.503 13.6516C235.44 1.57338 266.997 -4.54449 294.141 4.51493C321.709 13.7159 332.39 79.0991 359.419 89.7761C405.614 113.356 412.304 -29.8056 466.492 72.5977C491.207 94.8187 489.577 139.865 477.382 170.755C467.756 195.138 456.284 193.961 448.053 218.002C438.27 246.575 418.99 269.778 391.111 281.394C379.723 286.139 371.45 292.121 371.882 299.97C374.132 340.78 439.479 381.413 405.614 404.388C368.992 429.234 348.299 352.504 306.122 339.044C292.218 334.606 278.837 371.046 270.416 388.899Z" fill="#079A8E"/>
<path fill-rule="evenodd" clip-rule="evenodd" d="M53.1011 451.725C60.1433 451.035 64.6114 427.23 63.3772 407.03C62.2795 389.064 60.2507 363.029 53.5804 351.982C45.3915 338.42 22.1226 339.202 18.545 354.489C19.5643 367.053 25.6902 385.06 31.0411 404.341C36.2668 423.171 46.2425 452.397 53.1011 451.725Z" fill="#079A8E"/>
<path fill-rule="evenodd" clip-rule="evenodd" d="M410.026 430.351C412.826 435.445 419.946 434.201 425.593 432.843C430.617 431.636 435.585 429.089 436.468 423.996C437.551 417.744 435.819 410.327 429.884 408.08C424.465 406.029 420.451 412.15 416.596 416.474C412.831 420.696 407.299 425.39 410.026 430.351Z" fill="#079A8E"/>
<path fill-rule="evenodd" clip-rule="evenodd" d="M419.619 303.107C423.74 307.343 436.243 301.31 446.214 296.085C455.082 291.438 464.047 285.24 466.301 278.646C469.068 270.551 467.127 262.88 457.174 264.022C448.084 265.065 440.263 274.883 432.972 282.47C425.852 289.881 415.606 298.98 419.619 303.107Z" fill="#079A8E"/>
</svg>
