<svg class="splatter" preserveAspectRatio="none" viewBox="0 0 643 624" fill="none" xmlns="http://www.w3.org/2000/svg">
<path fill-rule="evenodd" clip-rule="evenodd" d="M334.127 605.724C336.805 607.531 335.211 611.42 333.727 614.485C332.407 617.212 330.301 619.842 327.181 620.077C323.349 620.366 319.168 619.035 318.553 615.63C317.991 612.521 322.098 610.6 325.122 608.676C328.074 606.798 331.519 603.963 334.127 605.724Z" fill="#01645F"/>
<path d="M243.779 460.922C243.779 460.922 273.709 466.783 295.557 500.575C303.497 512.856 318.027 538.557 320.067 553.573C321.527 564.319 318.84 568.39 318.486 576.285C318.238 581.814 320.067 588 320.067 588L320.638 589.539C323.294 596.694 333.188 597.278 336.668 590.485V590.485C336.668 590.485 340.267 585.483 340.503 577.35C347 546 320.067 460.922 365.911 454.051C403.703 454.051 425.682 504.231 470.195 504.231C514.708 504.231 492.243 461.632 511.318 440.867C512.46 440.082 513.602 439.296 514.742 438.51C518.713 443.615 522.609 448.855 526.472 454.051C551.617 487.873 575.372 519.826 609.572 500.575C640.206 483.331 622.311 449.96 602.391 412.812C587.145 384.38 570.712 353.737 573.941 326.417C576.271 306.701 592.027 291.808 607.818 276.881C623.397 262.154 639.01 247.395 641.796 227.941C647.346 189.185 631.968 145.637 602.129 129.576C583.645 119.627 561.529 127.707 538.931 135.963C523.25 141.692 507.337 147.507 492.243 147.441C478.17 147.38 465.669 142.639 453.094 137.871C443.127 134.092 433.504 131.492 423.623 129.007C422.428 128.706 421.057 128.389 419.602 128.067C409.436 125.818 393.062 129.308 388.395 120V120C379.54 102.342 380.951 91.6813 378.288 67.9999C373.578 26.1217 376.755 10.055 338.652 9.02069C302.325 8.03428 289.775 42.6054 276.498 79.1779C265.947 108.239 241.064 90.9773 217.302 105.729C201.956 115.256 195.507 116.287 175.372 109.182C154.651 101.87 134.129 94.6279 119.438 105.729C104.005 117.391 107.951 136.783 112.021 156.786C115.5 173.88 119.069 191.419 110.711 204.961C100.968 220.746 81.07 229.831 61.5618 238.739C38.2968 249.362 15.5851 259.733 11.3098 280.913C4.24898 315.893 50.5016 344.485 77.8866 367.574C86.0741 377.854 85.6788 377.499 93.1886 386.729C101.094 392.764 42.7315 460.405 73.1694 491.598C103.607 522.79 135.765 526.737 175.372 491.598C217.693 454.051 243.779 460.922 243.779 460.922Z" fill="#01645F"/>
<ellipse cx="64.795" cy="515.65" rx="11.8575" ry="10.6497" fill="#01645F"/>
<ellipse cx="52.4033" cy="547.165" rx="9.09076" ry="8.16474" fill="#01645F"/>
<path fill-rule="evenodd" clip-rule="evenodd" d="M333.162 603.724C335.84 605.531 334.246 609.42 332.762 612.485C331.442 615.212 329.336 617.842 326.216 618.077C322.385 618.366 318.203 617.035 317.588 613.63C317.027 610.521 321.133 608.6 324.157 606.676C327.11 604.798 330.554 601.963 333.162 603.724Z" fill="#079A8E"/>
<path d="M233.193 451.922C233.193 451.922 263.123 457.783 284.971 491.575C292.911 503.856 307.441 529.557 309.481 544.573C310.941 555.319 314.178 565.432 313.824 573.327C313.577 578.857 315.405 585.042 315.405 585.042L315.976 586.581C318.632 593.736 328.526 594.321 332.006 587.528V587.528C332.006 587.528 335.606 582.525 335.842 574.392C336.834 540.184 323.981 450.602 355.325 445.051C393.117 445.051 415.096 495.231 459.609 495.231C504.122 495.231 481.657 452.631 500.732 431.867C501.875 431.081 503.017 430.296 504.156 429.51C508.127 434.615 512.023 439.855 515.886 445.051C541.031 478.872 564.786 510.826 598.986 491.575C629.62 474.331 611.725 440.96 591.805 403.811C576.559 375.38 560.126 344.736 563.355 317.417C565.686 297.701 581.441 282.807 597.232 267.881C612.811 253.154 628.424 238.395 631.21 218.941C636.76 180.185 621.382 136.637 591.543 120.576C573.059 110.627 550.943 118.707 528.345 126.963C512.664 132.692 496.751 138.506 481.657 138.441C467.584 138.38 455.083 133.639 442.508 128.871C432.541 125.092 422.918 122.492 413.037 120.007C409.465 119.109 404.322 118.059 400.061 117.192C395.602 116.286 391.703 113.591 389.664 109.523V109.523C380.809 91.8649 385.265 81.9202 382.602 58.2389C377.893 16.3607 366.169 1.05508 328.066 0.020752C291.739 -0.965657 279.189 33.6055 265.912 70.1779C255.362 99.239 230.478 81.9772 206.716 96.7292C191.37 106.256 184.921 107.287 164.786 100.182C144.065 92.8698 123.544 85.6278 108.852 96.7292C93.4191 108.391 97.3651 127.783 101.435 147.786C104.914 164.88 108.483 182.419 100.125 195.96C90.3816 211.746 70.4841 220.831 50.9758 229.739C27.7108 240.362 4.99915 250.733 0.723861 271.913C-6.33696 306.893 39.9157 335.485 67.3006 358.574C75.4882 368.854 75.0929 368.499 82.6027 377.729C90.5077 383.763 32.1455 451.405 62.5835 482.598C93.0215 513.79 125.179 517.737 164.786 482.598C207.107 445.051 233.193 451.922 233.193 451.922Z" fill="#079A8E"/>
<ellipse cx="64.0255" cy="513.689" rx="11.8575" ry="10.6497" fill="#079A8E"/>
<ellipse cx="49.3994" cy="545.283" rx="9.09076" ry="8.16474" fill="#079A8E"/>
</svg>
