<svg width="55" height="6" viewBox="0 0 55 6" fill="none" xmlns="http://www.w3.org/2000/svg">
<g style="mix-blend-mode:multiply">
<path d="M53.0659 1.94742C55.4697 2.56424 55.3898 5.13488 52.8148 5.51647C51.3206 5.73791 49.2574 5.62243 47.7074 5.55999C44.1674 5.41737 40.6237 5.30654 37.0824 5.29679C28.394 5.27287 19.683 4.8137 10.9973 5.0004C8.77713 5.04812 6.54923 4.99553 4.33701 5.16211C3.40804 5.23206 2.01133 5.47538 1.31558 5.19549C0.873971 5.01784 0.555921 4.70123 0.401193 4.28235C-0.317903 2.3356 3.0831 2.2631 4.57355 2.00886C10.899 0.929864 17.3781 0.764743 23.8156 0.51895C29.5932 0.298355 35.3579 0.826753 41.1388 0.879669C45.0226 0.915219 49.2851 0.977259 53.0659 1.94742Z" fill="#FACC15" fill-opacity="0.5"/>
</g>
</svg>
